<svg width="230" height="203" viewBox="0 0 230 203" fill="none" xmlns="http://www.w3.org/2000/svg">
<circle cx="141.863" cy="39.4458" r="16" stroke="black" stroke-width="6"/>
<path d="M33.2978 80.0141C38.7706 49.2384 65.2708 42.7385 85.2486 61.7983" stroke="black" stroke-width="6" stroke-linecap="round"/>
<path d="M34.8628 108.946C102.363 171.946 170.363 143.446 182.863 61.9458" stroke="black" stroke-width="6"/>
<path d="M34.8627 108.946C103.863 106.446 116.363 97.9457 182.863 61.9458" stroke="black" stroke-width="6" stroke-linecap="round"/>
<path d="M31.788 174.658C30.4013 174.658 29.162 174.346 28.07 173.722C26.9953 173.081 26.146 172.223 25.522 171.148C24.9153 170.056 24.612 168.826 24.612 167.456C24.612 166.052 24.9153 164.804 25.522 163.712C26.1287 162.62 26.9607 161.771 28.018 161.164C29.0753 160.54 30.2887 160.228 31.658 160.228C32.6807 160.228 33.6167 160.428 34.466 160.826C35.3153 161.208 36.078 161.788 36.754 162.568C36.9967 162.846 37.0833 163.132 37.014 163.426C36.9447 163.721 36.754 163.981 36.442 164.206C36.1993 164.38 35.9307 164.44 35.636 164.388C35.3413 164.319 35.0727 164.163 34.83 163.92C33.9807 163.019 32.9233 162.568 31.658 162.568C30.774 162.568 29.994 162.776 29.318 163.192C28.642 163.591 28.1133 164.154 27.732 164.882C27.3507 165.61 27.16 166.468 27.16 167.456C27.16 168.392 27.3507 169.224 27.732 169.952C28.1307 170.68 28.6767 171.261 29.37 171.694C30.0633 172.11 30.8693 172.318 31.788 172.318C32.3947 172.318 32.9233 172.249 33.374 172.11C33.842 171.954 34.2667 171.72 34.648 171.408C34.9253 171.183 35.2113 171.062 35.506 171.044C35.8007 171.01 36.0607 171.088 36.286 171.278C36.5807 171.521 36.7453 171.798 36.78 172.11C36.8147 172.405 36.7107 172.674 36.468 172.916C35.22 174.078 33.66 174.658 31.788 174.658ZM47.4032 174.658C45.9992 174.658 44.7599 174.355 43.6852 173.748C42.6106 173.124 41.7612 172.275 41.1372 171.2C40.5306 170.108 40.2272 168.86 40.2272 167.456C40.2272 166.035 40.5306 164.787 41.1372 163.712C41.7612 162.62 42.6106 161.771 43.6852 161.164C44.7599 160.54 45.9992 160.228 47.4032 160.228C48.7899 160.228 50.0206 160.54 51.0952 161.164C52.1699 161.771 53.0106 162.62 53.6172 163.712C54.2412 164.787 54.5532 166.035 54.5532 167.456C54.5532 168.86 54.2499 170.108 53.6432 171.2C53.0366 172.275 52.1959 173.124 51.1212 173.748C50.0466 174.355 48.8072 174.658 47.4032 174.658ZM47.4032 172.318C48.3046 172.318 49.1019 172.11 49.7952 171.694C50.4886 171.278 51.0259 170.706 51.4072 169.978C51.8059 169.25 52.0052 168.41 52.0052 167.456C52.0052 166.503 51.8059 165.662 51.4072 164.934C51.0259 164.189 50.4886 163.608 49.7952 163.192C49.1019 162.776 48.3046 162.568 47.4032 162.568C46.5019 162.568 45.7046 162.776 45.0112 163.192C44.3179 163.608 43.7719 164.189 43.3732 164.934C42.9746 165.662 42.7752 166.503 42.7752 167.456C42.7752 168.41 42.9746 169.25 43.3732 169.978C43.7719 170.706 44.3179 171.278 45.0112 171.694C45.7046 172.11 46.5019 172.318 47.4032 172.318ZM61.8802 174.554C61.1175 174.554 60.4415 174.346 59.8522 173.93C59.2628 173.514 58.8035 172.951 58.4742 172.24C58.1448 171.512 57.9802 170.68 57.9802 169.744V155.548C57.9802 155.167 58.1015 154.855 58.3442 154.612C58.5868 154.37 58.8988 154.248 59.2802 154.248C59.6615 154.248 59.9735 154.37 60.2162 154.612C60.4588 154.855 60.5802 155.167 60.5802 155.548V169.744C60.5802 170.386 60.7015 170.914 60.9442 171.33C61.1868 171.746 61.4988 171.954 61.8802 171.954H62.5302C62.8768 171.954 63.1542 172.076 63.3622 172.318C63.5875 172.561 63.7002 172.873 63.7002 173.254C63.7002 173.636 63.5355 173.948 63.2062 174.19C62.8768 174.433 62.4522 174.554 61.9322 174.554H61.8802ZM69.6751 174.554C68.9124 174.554 68.2364 174.346 67.6471 173.93C67.0577 173.514 66.5984 172.951 66.2691 172.24C65.9397 171.512 65.7751 170.68 65.7751 169.744V155.548C65.7751 155.167 65.8964 154.855 66.1391 154.612C66.3817 154.37 66.6937 154.248 67.0751 154.248C67.4564 154.248 67.7684 154.37 68.0111 154.612C68.2537 154.855 68.3751 155.167 68.3751 155.548V169.744C68.3751 170.386 68.4964 170.914 68.7391 171.33C68.9817 171.746 69.2937 171.954 69.6751 171.954H70.3251C70.6717 171.954 70.9491 172.076 71.1571 172.318C71.3824 172.561 71.4951 172.873 71.4951 173.254C71.4951 173.636 71.3304 173.948 71.0011 174.19C70.6717 174.433 70.2471 174.554 69.7271 174.554H69.6751ZM79.9849 174.658C78.5462 174.658 77.2636 174.355 76.1369 173.748C75.0276 173.124 74.1522 172.275 73.5109 171.2C72.8869 170.108 72.5749 168.86 72.5749 167.456C72.5749 166.035 72.8696 164.787 73.4589 163.712C74.0656 162.62 74.8976 161.771 75.9549 161.164C77.0122 160.54 78.2256 160.228 79.5949 160.228C80.9469 160.228 82.1082 160.532 83.0789 161.138C84.0496 161.728 84.7862 162.551 85.2889 163.608C85.8089 164.648 86.0689 165.853 86.0689 167.222C86.0689 167.552 85.9562 167.829 85.7309 168.054C85.5056 168.262 85.2196 168.366 84.8729 168.366H74.3949V166.286H84.7949L83.7289 167.014C83.7116 166.148 83.5382 165.376 83.2089 164.7C82.8796 164.007 82.4116 163.461 81.8049 163.062C81.1982 162.664 80.4616 162.464 79.5949 162.464C78.6069 162.464 77.7576 162.681 77.0469 163.114C76.3536 163.548 75.8249 164.146 75.4609 164.908C75.0969 165.654 74.9149 166.503 74.9149 167.456C74.9149 168.41 75.1316 169.259 75.5649 170.004C75.9982 170.75 76.5962 171.339 77.3589 171.772C78.1216 172.206 78.9969 172.422 79.9849 172.422C80.5222 172.422 81.0682 172.327 81.6229 172.136C82.1949 171.928 82.6542 171.694 83.0009 171.434C83.2609 171.244 83.5382 171.148 83.8329 171.148C84.1449 171.131 84.4136 171.218 84.6389 171.408C84.9336 171.668 85.0896 171.954 85.1069 172.266C85.1242 172.578 84.9856 172.847 84.6909 173.072C84.1016 173.54 83.3649 173.922 82.4809 174.216C81.6142 174.511 80.7822 174.658 79.9849 174.658ZM94.8715 174.658C93.5715 174.658 92.4188 174.355 91.4135 173.748C90.4255 173.124 89.6455 172.275 89.0735 171.2C88.5015 170.108 88.2155 168.86 88.2155 167.456C88.2155 166.035 88.5188 164.787 89.1255 163.712C89.7495 162.62 90.5988 161.771 91.6735 161.164C92.7482 160.54 93.9875 160.228 95.3915 160.228C96.7782 160.228 98.0088 160.54 99.0835 161.164C100.158 161.771 100.999 162.62 101.606 163.712C102.23 164.787 102.542 166.035 102.542 167.456H101.008C101.008 168.86 100.739 170.108 100.202 171.2C99.6815 172.275 98.9622 173.124 98.0435 173.748C97.1248 174.355 96.0675 174.658 94.8715 174.658ZM95.3395 180.456C94.1088 180.456 92.9562 180.214 91.8815 179.728C90.8068 179.243 89.8968 178.532 89.1515 177.596C88.9262 177.302 88.8395 176.998 88.8915 176.686C88.9608 176.374 89.1342 176.123 89.4115 175.932C89.7235 175.724 90.0442 175.655 90.3735 175.724C90.7202 175.794 90.9975 175.967 91.2055 176.244C91.6735 176.834 92.2628 177.293 92.9735 177.622C93.6842 177.952 94.4902 178.116 95.3915 178.116C96.2235 178.116 96.9862 177.917 97.6795 177.518C98.3902 177.12 98.9535 176.53 99.3695 175.75C99.7855 174.97 99.9935 174.017 99.9935 172.89V169.198L100.852 166.91L102.542 167.456V173.072C102.542 174.442 102.238 175.681 101.632 176.79C101.025 177.917 100.176 178.81 99.0835 179.468C98.0088 180.127 96.7608 180.456 95.3395 180.456ZM95.3915 172.318C96.2928 172.318 97.0902 172.11 97.7835 171.694C98.4768 171.278 99.0142 170.706 99.3955 169.978C99.7942 169.25 99.9935 168.41 99.9935 167.456C99.9935 166.503 99.7942 165.662 99.3955 164.934C99.0142 164.189 98.4768 163.608 97.7835 163.192C97.0902 162.776 96.2928 162.568 95.3915 162.568C94.4902 162.568 93.6928 162.776 92.9995 163.192C92.3062 163.608 91.7602 164.189 91.3615 164.934C90.9628 165.662 90.7635 166.503 90.7635 167.456C90.7635 168.41 90.9628 169.25 91.3615 169.978C91.7602 170.706 92.3062 171.278 92.9995 171.694C93.6928 172.11 94.4902 172.318 95.3915 172.318ZM113.17 174.658C111.732 174.658 110.449 174.355 109.322 173.748C108.213 173.124 107.338 172.275 106.696 171.2C106.072 170.108 105.76 168.86 105.76 167.456C105.76 166.035 106.055 164.787 106.644 163.712C107.251 162.62 108.083 161.771 109.14 161.164C110.198 160.54 111.411 160.228 112.78 160.228C114.132 160.228 115.294 160.532 116.264 161.138C117.235 161.728 117.972 162.551 118.474 163.608C118.994 164.648 119.254 165.853 119.254 167.222C119.254 167.552 119.142 167.829 118.916 168.054C118.691 168.262 118.405 168.366 118.058 168.366H107.58V166.286H117.98L116.914 167.014C116.897 166.148 116.724 165.376 116.394 164.7C116.065 164.007 115.597 163.461 114.99 163.062C114.384 162.664 113.647 162.464 112.78 162.464C111.792 162.464 110.943 162.681 110.232 163.114C109.539 163.548 109.01 164.146 108.646 164.908C108.282 165.654 108.1 166.503 108.1 167.456C108.1 168.41 108.317 169.259 108.75 170.004C109.184 170.75 109.782 171.339 110.544 171.772C111.307 172.206 112.182 172.422 113.17 172.422C113.708 172.422 114.254 172.327 114.808 172.136C115.38 171.928 115.84 171.694 116.186 171.434C116.446 171.244 116.724 171.148 117.018 171.148C117.33 171.131 117.599 171.218 117.824 171.408C118.119 171.668 118.275 171.954 118.292 172.266C118.31 172.578 118.171 172.847 117.876 173.072C117.287 173.54 116.55 173.922 115.666 174.216C114.8 174.511 113.968 174.658 113.17 174.658ZM131.58 180.638C131.199 180.638 130.878 180.508 130.618 180.248C130.375 180.006 130.254 179.694 130.254 179.312V167.456C130.271 166.087 130.592 164.856 131.216 163.764C131.84 162.672 132.689 161.814 133.764 161.19C134.839 160.549 136.052 160.228 137.404 160.228C138.773 160.228 139.995 160.549 141.07 161.19C142.145 161.814 142.994 162.672 143.618 163.764C144.259 164.856 144.58 166.087 144.58 167.456C144.58 168.826 144.285 170.056 143.696 171.148C143.124 172.223 142.335 173.081 141.33 173.722C140.325 174.346 139.189 174.658 137.924 174.658C136.901 174.658 135.957 174.45 135.09 174.034C134.241 173.601 133.513 173.02 132.906 172.292V179.312C132.906 179.694 132.785 180.006 132.542 180.248C132.299 180.508 131.979 180.638 131.58 180.638ZM137.404 172.318C138.288 172.318 139.077 172.11 139.77 171.694C140.463 171.261 141.009 170.68 141.408 169.952C141.824 169.207 142.032 168.375 142.032 167.456C142.032 166.52 141.824 165.688 141.408 164.96C141.009 164.215 140.463 163.634 139.77 163.218C139.077 162.785 138.288 162.568 137.404 162.568C136.537 162.568 135.749 162.785 135.038 163.218C134.345 163.634 133.799 164.215 133.4 164.96C133.001 165.688 132.802 166.52 132.802 167.456C132.802 168.375 133.001 169.207 133.4 169.952C133.799 170.68 134.345 171.261 135.038 171.694C135.749 172.11 136.537 172.318 137.404 172.318ZM154.463 174.658C153.198 174.658 152.063 174.346 151.057 173.722C150.052 173.081 149.255 172.223 148.665 171.148C148.093 170.056 147.807 168.826 147.807 167.456C147.807 166.087 148.119 164.856 148.743 163.764C149.385 162.672 150.243 161.814 151.317 161.19C152.409 160.549 153.631 160.228 154.983 160.228C156.335 160.228 157.549 160.549 158.623 161.19C159.698 161.814 160.547 162.672 161.171 163.764C161.813 164.856 162.133 166.087 162.133 167.456H161.119C161.119 168.826 160.825 170.056 160.235 171.148C159.663 172.223 158.875 173.081 157.869 173.722C156.864 174.346 155.729 174.658 154.463 174.658ZM154.983 172.318C155.867 172.318 156.656 172.11 157.349 171.694C158.043 171.261 158.589 170.68 158.987 169.952C159.386 169.207 159.585 168.375 159.585 167.456C159.585 166.52 159.386 165.688 158.987 164.96C158.589 164.215 158.043 163.634 157.349 163.218C156.656 162.785 155.867 162.568 154.983 162.568C154.117 162.568 153.328 162.785 152.617 163.218C151.924 163.634 151.369 164.215 150.953 164.96C150.555 165.688 150.355 166.52 150.355 167.456C150.355 168.375 150.555 169.207 150.953 169.952C151.369 170.68 151.924 171.261 152.617 171.694C153.328 172.11 154.117 172.318 154.983 172.318ZM160.807 174.58C160.426 174.58 160.105 174.459 159.845 174.216C159.603 173.956 159.481 173.636 159.481 173.254V169.276L159.975 166.52L162.133 167.456V173.254C162.133 173.636 162.003 173.956 161.743 174.216C161.501 174.459 161.189 174.58 160.807 174.58ZM172.008 174.658C170.708 174.658 169.556 174.355 168.55 173.748C167.562 173.124 166.782 172.275 166.21 171.2C165.638 170.108 165.352 168.86 165.352 167.456C165.352 166.035 165.656 164.787 166.262 163.712C166.886 162.62 167.736 161.771 168.81 161.164C169.885 160.54 171.124 160.228 172.528 160.228C173.915 160.228 175.146 160.54 176.22 161.164C177.295 161.771 178.136 162.62 178.742 163.712C179.366 164.787 179.678 166.035 179.678 167.456H178.144C178.144 168.86 177.876 170.108 177.338 171.2C176.818 172.275 176.099 173.124 175.18 173.748C174.262 174.355 173.204 174.658 172.008 174.658ZM172.476 180.456C171.246 180.456 170.093 180.214 169.018 179.728C167.944 179.243 167.034 178.532 166.288 177.596C166.063 177.302 165.976 176.998 166.028 176.686C166.098 176.374 166.271 176.123 166.548 175.932C166.86 175.724 167.181 175.655 167.51 175.724C167.857 175.794 168.134 175.967 168.342 176.244C168.81 176.834 169.4 177.293 170.11 177.622C170.821 177.952 171.627 178.116 172.528 178.116C173.36 178.116 174.123 177.917 174.816 177.518C175.527 177.12 176.09 176.53 176.506 175.75C176.922 174.97 177.13 174.017 177.13 172.89V169.198L177.988 166.91L179.678 167.456V173.072C179.678 174.442 179.375 175.681 178.768 176.79C178.162 177.917 177.312 178.81 176.22 179.468C175.146 180.127 173.898 180.456 172.476 180.456ZM172.528 172.318C173.43 172.318 174.227 172.11 174.92 171.694C175.614 171.278 176.151 170.706 176.532 169.978C176.931 169.25 177.13 168.41 177.13 167.456C177.13 166.503 176.931 165.662 176.532 164.934C176.151 164.189 175.614 163.608 174.92 163.192C174.227 162.776 173.43 162.568 172.528 162.568C171.627 162.568 170.83 162.776 170.136 163.192C169.443 163.608 168.897 164.189 168.498 164.934C168.1 165.662 167.9 166.503 167.9 167.456C167.9 168.41 168.1 169.25 168.498 169.978C168.897 170.706 169.443 171.278 170.136 171.694C170.83 172.11 171.627 172.318 172.528 172.318ZM187.005 174.554C186.242 174.554 185.566 174.346 184.977 173.93C184.388 173.514 183.928 172.951 183.599 172.24C183.27 171.512 183.105 170.68 183.105 169.744V155.548C183.105 155.167 183.226 154.855 183.469 154.612C183.712 154.37 184.024 154.248 184.405 154.248C184.786 154.248 185.098 154.37 185.341 154.612C185.584 154.855 185.705 155.167 185.705 155.548V169.744C185.705 170.386 185.826 170.914 186.069 171.33C186.312 171.746 186.624 171.954 187.005 171.954H187.655C188.002 171.954 188.279 172.076 188.487 172.318C188.712 172.561 188.825 172.873 188.825 173.254C188.825 173.636 188.66 173.948 188.331 174.19C188.002 174.433 187.577 174.554 187.057 174.554H187.005ZM197.4 174.684C196.204 174.684 195.129 174.433 194.176 173.93C193.24 173.41 192.495 172.656 191.94 171.668C191.403 170.68 191.134 169.467 191.134 168.028V161.632C191.134 161.251 191.255 160.939 191.498 160.696C191.758 160.436 192.079 160.306 192.46 160.306C192.841 160.306 193.153 160.436 193.396 160.696C193.656 160.939 193.786 161.251 193.786 161.632V168.028C193.786 168.999 193.968 169.805 194.332 170.446C194.696 171.07 195.19 171.538 195.814 171.85C196.438 172.145 197.14 172.292 197.92 172.292C198.665 172.292 199.324 172.145 199.896 171.85C200.485 171.556 200.953 171.157 201.3 170.654C201.647 170.152 201.82 169.588 201.82 168.964H203.458C203.458 170.039 203.189 171.01 202.652 171.876C202.132 172.743 201.413 173.428 200.494 173.93C199.593 174.433 198.561 174.684 197.4 174.684ZM203.146 174.554C202.765 174.554 202.444 174.433 202.184 174.19C201.941 173.93 201.82 173.61 201.82 173.228V161.632C201.82 161.234 201.941 160.913 202.184 160.67C202.444 160.428 202.765 160.306 203.146 160.306C203.545 160.306 203.865 160.428 204.108 160.67C204.351 160.913 204.472 161.234 204.472 161.632V173.228C204.472 173.61 204.351 173.93 204.108 174.19C203.865 174.433 203.545 174.554 203.146 174.554Z" fill="black"/>
</svg>
